<svg width="16" height="16" viewBox="0 0 16 16" fill="none" xmlns="http://www.w3.org/2000/svg">
<path d="M10.1314 1.99951C10.483 2.00452 10.8183 2.14826 11.0645 2.39941L13.5972 4.93213C13.8483 5.17824 13.9921 5.51363 13.9971 5.86524V12.6636C13.9971 13.0171 13.8566 13.3562 13.6066 13.6062C13.3567 13.8561 13.0176 13.9966 12.6641 13.9966H3.33301C2.97947 13.9966 2.64042 13.8561 2.39043 13.6062C2.14044 13.3562 2 13.0171 2 12.6636V3.33252C2 2.97898 2.14044 2.63993 2.39043 2.38994C2.64042 2.13995 2.97947 1.99951 3.33301 1.99951H10.1314Z" stroke="white" stroke-width="1.33301" stroke-linecap="round" stroke-linejoin="round"/>
<path d="M11.3311 13.9966V9.33105C11.3311 9.15429 11.2608 8.98476 11.1358 8.85977C11.0108 8.73477 10.8413 8.66455 10.6646 8.66455H5.33252C5.15575 8.66455 4.98622 8.73477 4.86123 8.85977C4.73624 8.98476 4.66602 9.15429 4.66602 9.33105V13.9966" stroke="white" stroke-width="1.33301" stroke-linecap="round" stroke-linejoin="round"/>
<path d="M4.66602 1.99951V4.66553C4.66602 4.8423 4.73624 5.01182 4.86123 5.13682C4.98622 5.26181 5.15575 5.33203 5.33252 5.33203H9.99805" stroke="white" stroke-width="1.33301" stroke-linecap="round" stroke-linejoin="round"/>
</svg>
